<svg preserveAspectRatio="none" width="100%" height="100%" overflow="visible" style="display: block;" viewBox="0 0 24 24" fill="none" xmlns="http://www.w3.org/2000/svg">
<g id="icon / send-alt">
<path id="icon" d="M19.6767 4.13468C21.8209 3.91795 23.2163 6.33428 21.957 8.08292L12.8926 20.663C11.6717 22.3569 9.03521 21.8962 8.46092 19.8886L7.34471 15.9882C7.08702 15.0869 7.35755 14.1309 8.01658 13.498C7.13903 13.7521 6.17696 13.5096 5.52537 12.8359L2.70506 9.91886C1.25374 8.4176 2.17339 5.90329 4.25096 5.69328L19.6767 4.13468ZM9.47166 14.8847C9.29079 15.0053 9.20791 15.2294 9.26756 15.4384L10.3838 19.3388C10.4986 19.7403 11.0263 19.8327 11.2705 19.4941L19.3242 8.31535L9.47166 14.8847ZM4.45213 7.68351C4.03674 7.7255 3.85268 8.22795 4.14256 8.52824L6.96287 11.4452C7.11405 11.6016 7.34897 11.6422 7.54393 11.5458L18.1582 6.29777L4.45213 7.68351Z" fill="var(--fill-0, #F9FAFB)"/>
</g>
</svg>
