<svg preserveAspectRatio="none" width="100%" height="100%" overflow="visible" style="display: block;" viewBox="0 0 15.375 15.3719" fill="none" xmlns="http://www.w3.org/2000/svg">
<g id="Logo icon - instagram">
<path id="Logo vector 3" d="M2.65313 0.403125C2.14688 0.6 1.71875 0.8625 1.29062 1.29062C0.8625 1.71562 0.6 2.14687 0.403125 2.65C0.2125 3.1375 0.084375 3.69687 0.046875 4.51562C0.009375 5.33438 0 5.59688 0 7.68438C0 9.77188 0.009375 10.0344 0.046875 10.8531C0.084375 11.6719 0.215625 12.2312 0.403125 12.7188C0.6 13.225 0.8625 13.6531 1.29062 14.0813C1.71875 14.5094 2.14688 14.7719 2.65313 14.9688C3.14063 15.1594 3.7 15.2875 4.51875 15.325C5.3375 15.3625 5.6 15.3719 7.6875 15.3719C9.775 15.3719 10.0375 15.3625 10.8562 15.325C11.675 15.2875 12.2344 15.1562 12.7219 14.9688C13.2281 14.7719 13.6562 14.5094 14.0844 14.0813C14.5125 13.6531 14.775 13.225 14.9719 12.7188C15.1625 12.2312 15.2906 11.6719 15.3281 10.8531C15.3656 10.0344 15.375 9.77188 15.375 7.68438C15.375 5.59688 15.3656 5.33438 15.3281 4.51562C15.2906 3.69687 15.1594 3.1375 14.9719 2.65C14.775 2.14687 14.5125 1.71562 14.0875 1.29062C13.6594 0.8625 13.2312 0.6 12.725 0.403125C12.2375 0.2125 11.6781 0.084375 10.8594 0.046875C10.0406 0.009375 9.77812 0 7.69062 0C5.60312 0 5.34062 0.009375 4.52187 0.046875C3.7 0.08125 3.14063 0.2125 2.65313 0.403125ZM10.7937 1.42813C11.5437 1.4625 11.95 1.5875 12.2219 1.69375C12.5812 1.83438 12.8375 2 13.1062 2.26875C13.375 2.5375 13.5406 2.79375 13.6812 3.15312C13.7875 3.425 13.9125 3.83125 13.9469 4.58125C13.9844 5.39062 13.9906 5.63437 13.9906 7.6875C13.9906 9.74062 13.9812 9.98438 13.9469 10.7938C13.9125 11.5438 13.7875 11.95 13.6812 12.2219C13.5406 12.5813 13.375 12.8375 13.1062 13.1063C12.8375 13.375 12.5812 13.5406 12.2219 13.6813C11.95 13.7875 11.5437 13.9125 10.7937 13.9469C9.98437 13.9844 9.74063 13.9906 7.6875 13.9906C5.63438 13.9906 5.39063 13.9813 4.58125 13.9469C3.83125 13.9125 3.425 13.7875 3.15313 13.6813C2.79375 13.5406 2.5375 13.375 2.26875 13.1063C2 12.8375 1.83438 12.5813 1.69375 12.2219C1.5875 11.95 1.4625 11.5438 1.42813 10.7938C1.39063 9.98438 1.38437 9.74062 1.38437 7.6875C1.38437 5.63437 1.39375 5.39062 1.42813 4.58125C1.4625 3.83125 1.5875 3.425 1.69375 3.15312C1.83438 2.79375 2 2.5375 2.26875 2.26875C2.5375 2 2.79375 1.83438 3.15313 1.69375C3.425 1.5875 3.83125 1.4625 4.58125 1.42813C5.39063 1.39063 5.63438 1.38437 7.6875 1.38437C9.74063 1.38437 9.98437 1.39063 10.7937 1.42813Z" fill="var(--fill-0, black)"/>
<path id="Logo vector 2" d="M3.74089 7.68743C3.74089 9.86868 5.50964 11.6343 7.68776 11.6343C9.86589 11.6343 11.6346 9.86556 11.6346 7.68743C11.6346 5.50931 9.86901 3.74056 7.68776 3.74056C5.50651 3.74056 3.74089 5.50618 3.74089 7.68743ZM10.2503 7.68743C10.2503 9.10306 9.10339 10.2499 7.68776 10.2499C6.27214 10.2499 5.12526 9.10306 5.12526 7.68743C5.12526 6.27181 6.27214 5.12493 7.68776 5.12493C9.10339 5.12493 10.2503 6.27181 10.2503 7.68743Z" fill="var(--fill-0, black)"/>
<path id="Logo vector 1" d="M11.7937 4.50625C12.3029 4.50625 12.7156 4.09351 12.7156 3.58437C12.7156 3.07524 12.3029 2.6625 11.7937 2.6625C11.2846 2.6625 10.8719 3.07524 10.8719 3.58437C10.8719 4.09351 11.2846 4.50625 11.7937 4.50625Z" fill="var(--fill-0, black)"/>
</g>
</svg>
